#N canvas 42 59 994 720 10;
#X obj 244 545 dac~;
#X obj 547 131 netreceive 3000;
#X obj 548 168 route x y z volume power;
#X obj 542 209 s x;
#X obj 583 216 s y;
#X obj 624 218 s z;
#X obj 680 249 s volume;
#X obj 778 245 s power;
#X obj 371 158 r z;
#X obj 371 264 phasor~;
#X obj 247 447 +~;
#X obj 211 144 +~ 400;
#X obj 113 143 +~ 400;
#X obj 117 249 phasor~;
#X obj 212 256 phasor~;
#X obj 210 183 -~ 4;
#X obj 294 70 r y;
#X obj 291 110 * 0.008;
#X obj 109 106 *~ 0.6;
#X obj 211 109 *~ 0.6;
#X obj 210 79 r z;
#X obj 109 76 r z;
#X obj 371 227 +~ 400;
#X obj 371 194 *~ 0.6;
#X obj 371 315 bp~ 660 0.1;
#X obj 371 412 *~ 0.15;
#X obj 294 391 r x;
#X obj 249 514 bp~ 800 0.99;
#X obj 251 481 *~ 0.5;
#X obj 301 453 * 0.001;
#X obj 559 364 tgl 15 0 empty empty empty 17 7 0 10 -262144 -1 -1 0
300;
#X obj 549 312 r power;
#X msg 555 418 \; pd dsp \$1 \;;
#X obj 371 375 *~ 0.12;
#X obj 212 322 *~ 0.5;
#X obj 120 340 *~ 0.5;
#X connect 1 0 2 0;
#X connect 2 0 3 0;
#X connect 2 1 4 0;
#X connect 2 2 5 0;
#X connect 2 3 6 0;
#X connect 2 4 7 0;
#X connect 8 0 23 0;
#X connect 9 0 24 0;
#X connect 10 0 28 0;
#X connect 11 0 15 0;
#X connect 12 0 13 0;
#X connect 13 0 35 0;
#X connect 14 0 34 0;
#X connect 15 0 14 0;
#X connect 16 0 17 0;
#X connect 17 0 15 1;
#X connect 18 0 12 0;
#X connect 19 0 11 0;
#X connect 20 0 19 0;
#X connect 21 0 18 0;
#X connect 22 0 9 0;
#X connect 23 0 22 0;
#X connect 24 0 33 0;
#X connect 25 0 10 0;
#X connect 26 0 29 0;
#X connect 27 0 0 0;
#X connect 27 0 0 1;
#X connect 28 0 27 0;
#X connect 29 0 28 1;
#X connect 30 0 32 0;
#X connect 31 0 30 0;
#X connect 33 0 25 0;
#X connect 34 0 10 0;
#X connect 35 0 10 0;
